<svg width="396" height="132" viewBox="0 0 396 132" fill="none" xmlns="http://www.w3.org/2000/svg">
<rect y="12.9844" width="103.529" height="103.88" rx="28.9317" fill="#3692FF"/>
<path d="M49.9902 41.9056C51.2825 46.3715 47.8655 51.2926 43.9487 52.4337C40.0319 53.5748 34.6808 51.2081 33.3885 46.7422C32.0962 42.2762 34.8091 36.0883 38.7259 34.9473C43.9487 33.4257 48.6978 37.4396 49.9902 41.9056Z" fill="#222327"/>
<path d="M52.1441 41.9056C50.8518 46.3715 54.2688 51.2926 58.1856 52.4337C62.1024 53.5748 67.4535 51.2081 68.7458 46.7422C70.0381 42.2762 67.3252 36.0883 63.4084 34.9473C58.1856 33.4257 53.4364 37.4396 52.1441 41.9056Z" fill="#222327"/>
<path d="M76.3975 74.5317C76.3975 85.891 65.2594 90.1134 50.0662 90.1134C34.873 90.1134 23.9868 85.891 23.9868 74.5317C23.9868 61.3185 34.873 49.6011 50.0662 49.6011C65.2594 49.6011 76.3975 60.3213 76.3975 74.5317Z" fill="#F3D6DD"/>
<path d="M45.0365 72.2892C45.0365 76.0095 42.6485 80.0907 39.3115 80.0907C35.9745 80.0907 30.584 77.0594 30.584 71.502C30.584 66.2815 36.4074 64.4248 42.4249 65.3781C46.1131 65.9624 45.0365 68.5688 45.0365 72.2892Z" fill="#222327"/>
<path d="M42.245 71.9138C42.245 72.4718 42.0772 72.9242 41.238 72.9242C40.3988 72.9242 40.231 72.4718 40.231 71.9138C40.231 71.3557 40.5666 70.9033 41.238 70.9033C41.9093 70.9033 42.245 71.3557 42.245 71.9138Z" fill="white"/>
<path d="M55.1867 72.2892C55.1867 76.0095 57.5746 80.0907 60.9116 80.0907C64.2486 80.0907 69.6392 77.0594 69.6392 71.502C69.6392 66.2815 63.8157 64.4248 57.7982 65.3781C54.1101 65.9624 55.1867 68.5688 55.1867 72.2892Z" fill="#222327"/>
<path d="M57.9811 71.9138C57.9811 72.4718 58.1489 72.9242 58.9881 72.9242C59.8273 72.9242 59.9951 72.4718 59.9951 71.9138C59.9951 71.3557 59.6594 70.9033 58.9881 70.9033C58.3167 70.9033 57.9811 71.3557 57.9811 71.9138Z" fill="white"/>
<path d="M46.2655 77.6693C46.0623 77.3728 45.6572 77.2971 45.3606 77.5003C45.064 77.7035 44.9883 78.1086 45.1915 78.4052L46.2655 77.6693ZM49.999 76.8687L50.6148 76.6577C50.5247 76.3945 50.2772 76.2177 49.999 76.2177C49.7208 76.2177 49.4734 76.3945 49.3832 76.6577L49.999 76.8687ZM54.8065 78.4052C55.0097 78.1086 54.934 77.7035 54.6375 77.5003C54.3409 77.2971 53.9357 77.3728 53.7325 77.6693L54.8065 78.4052ZM45.1915 78.4052C45.3714 78.6677 45.698 79.0195 46.136 79.3101C46.5781 79.6034 47.1686 79.8569 47.8638 79.8569V78.555C47.4913 78.555 47.1477 78.4189 46.8557 78.2252C46.5598 78.0289 46.3526 77.7964 46.2655 77.6693L45.1915 78.4052ZM47.8638 79.8569C48.7192 79.8569 49.3555 79.2466 49.7515 78.7212C50.1696 78.1665 50.4651 77.5167 50.6148 77.0796L49.3832 76.6577C49.266 76.9997 49.0277 77.5185 48.7118 77.9376C48.3738 78.3861 48.0759 78.555 47.8638 78.555V79.8569ZM49.3832 77.0796C49.5329 77.5167 49.8284 78.1665 50.2465 78.7212C50.6425 79.2466 51.2788 79.8569 52.1343 79.8569V78.555C51.9221 78.555 51.6242 78.3861 51.2862 77.9376C50.9703 77.5185 50.732 76.9997 50.6148 76.6577L49.3832 77.0796ZM52.1343 79.8569C52.8294 79.8569 53.42 79.6034 53.862 79.3101C54.3 79.0195 54.6267 78.6677 54.8065 78.4052L53.7325 77.6693C53.6455 77.7964 53.4383 78.0289 53.1423 78.2252C52.8504 78.4189 52.5068 78.555 52.1343 78.555V79.8569Z" fill="#222327"/>
<path d="M53.5531 76.2681C53.5531 76.8096 51.1149 77.4989 50.2943 77.7155C50.1189 77.7618 49.9381 77.7618 49.7627 77.7155C48.9421 77.4989 46.5039 76.8096 46.5039 76.2681C46.5039 75.6171 48.4527 74.9209 50.0285 74.9209C51.6043 74.9209 53.5531 75.6171 53.5531 76.2681Z" fill="#222327"/>
<path d="M49.6071 58.9512C39.8126 58.9512 36.2132 55.5103 35.6309 53.4976L40.2896 48.4336L50.3835 46.6807L64.3597 53.4976C63.5185 55.1207 59.4123 58.9512 49.6071 58.9512Z" fill="#222327"/>
<path fill-rule="evenodd" clip-rule="evenodd" d="M50.9626 95.7631C71.2026 95.7631 86.0406 90.0587 86.0406 74.7124C86.0406 55.5141 71.2026 41.0312 50.9626 41.0312C30.7226 41.0312 16.2202 56.8614 16.2202 74.7124C16.2202 90.0587 30.7226 95.7631 50.9626 95.7631ZM50.1668 89.8699C65.0549 89.8699 75.9694 85.6926 75.9694 74.4544C75.9694 60.3953 65.0549 49.7894 50.1668 49.7894C35.2787 49.7894 24.6111 61.3819 24.6111 74.4544C24.6111 85.6926 35.2787 89.8699 50.1668 89.8699Z" fill="white"/>
<path d="M183.487 54.3351H191.448V63.6233H183.487V82.4651H171.545V70.7885C163.053 72.5135 154.627 73.4423 142.353 73.4423H128.421V64.3531H133.728V45.5113H129.748V36.5548H166.37V45.5113H162.389V63.358C165.64 62.9599 168.692 62.4955 171.545 61.9647V35.8914H183.487V54.3351ZM134.989 98.2551V78.5508H147.196V89.0332H184.814V98.2551H134.989ZM145.67 64.3531C147.329 64.2868 148.921 64.2868 150.447 64.2204V45.5113H145.67V64.3531ZM257.792 58.9792V68.2674H249.831V98.2551H237.889V87.839C229.397 90.2938 220.971 91.687 208.698 91.687H196.756V37.8817H230.724V46.8382H208.698V82.5978C220.839 82.5978 229.463 81.4036 237.889 79.0152V35.8914H249.831V58.9792H257.792ZM324.137 58.9792V68.2674H316.176V98.2551H304.234V35.8914H316.176V58.9792H324.137ZM263.1 91.687V37.8817H297.798V91.687H263.1ZM275.042 82.5978H285.989V46.9709H275.042V82.5978ZM374.89 35.8914H386.501V71.85H374.89V35.8914ZM325.464 64.7512C333.226 63.1589 339.064 60.7042 342.315 57.586L329.444 58.3821V49.7573H345.102V45.5113H330.771V36.5548H356.712V48.4968H360.494V36.2231H371.772V71.85H360.494V57.785H354.987C351.471 64.6185 342.647 70.2578 329.245 73.6413L325.464 64.7512ZM332.695 88.7679C349.082 88.1708 353.859 84.7872 353.859 79.0152V73.9731H365.801V80.0767C365.801 81.669 365.602 83.1949 365.204 84.5882C372.9 85.1189 380.53 86.1804 386.501 87.5737L383.316 98.2551C376.483 95.8667 366.929 93.5447 359.233 92.2841C353.726 95.9994 344.903 97.7907 333.956 98.2551L332.695 88.7679Z" fill="#3692FF"/>
</svg>
