<svg width="25" height="24" viewBox="0 0 25 24" fill="none" xmlns="http://www.w3.org/2000/svg">
<path d="M6.53328 3.60012C6.03623 3.60012 5.63328 4.00307 5.63328 4.50012C5.63328 4.99718 6.03623 5.40012 6.53328 5.40012V3.60012ZM6.53328 5.40012H16.6666V3.60012H6.53328V5.40012ZM21.0999 9.83345V10.9001H22.8999V9.83345H21.0999ZM16.6666 15.3335H6.53328V17.1335H16.6666V15.3335ZM21.0999 10.9001C21.0999 13.3486 19.1151 15.3335 16.6666 15.3335V17.1335C20.1092 17.1335 22.8999 14.3427 22.8999 10.9001H21.0999ZM16.6666 5.40012C19.1151 5.40012 21.0999 7.38499 21.0999 9.83345H22.8999C22.8999 6.39088 20.1092 3.60012 16.6666 3.60012V5.40012Z" fill="white"/>
<path d="M3 16.2335L10.2 12.5384L10.2 19.9285L3 16.2335Z" fill="white"/>
</svg>
