<svg width="200" height="200" viewBox="0 0 200 200" fill="none" xmlns="http://www.w3.org/2000/svg">
<g clip-path="url(#clip0_12825_13028)">
<path d="M87.9346 54.6911C91.4538 63.7826 85.1871 74.6827 77.1866 77.7796C69.1861 80.8765 57.5429 76.9089 54.0237 67.8174C50.5046 58.726 55.0658 45.3084 63.0663 42.2116C73.7344 38.0821 84.4155 45.5996 87.9346 54.6911Z" fill="#D1D5DB"/>
<path d="M92.4459 54.2996C90.5489 63.8621 98.6031 73.5169 107.018 75.1862C115.433 76.8556 126.217 70.9378 128.114 61.3753C130.011 51.8128 123.202 39.3841 114.787 37.7147C103.566 35.4887 94.3429 44.7371 92.4459 54.2996Z" fill="#D1D5DB"/>
<path d="M175.164 124.017C175.164 156.188 143.953 168.146 101.379 168.146C58.8056 168.146 28.3008 156.188 28.3008 124.017C28.3008 86.5947 58.8056 53.4092 101.379 53.4092C143.953 53.4092 175.164 83.7704 175.164 124.017Z" fill="#F3F4F6"/>
<path d="M155.13 123.646C155.13 147.23 133.263 155.996 103.436 155.996C73.6082 155.996 52.2363 147.23 52.2363 123.646C52.2363 96.2127 73.6082 71.8852 103.436 71.8852C133.263 71.8852 155.13 94.1423 155.13 123.646Z" fill="#F9FAFB"/>
<path d="M100.619 120.356C100.619 128.155 95.8633 136.711 89.2174 136.711C82.5716 136.711 71.8359 130.356 71.8359 118.706C71.8359 107.762 83.4337 103.869 95.418 105.868C102.763 107.093 100.619 112.557 100.619 120.356Z" fill="#D1D5DB"/>
<path d="M95.0599 119.568C95.0599 120.738 94.7257 121.686 93.0544 121.686C91.3831 121.686 91.0488 120.738 91.0488 119.568C91.0488 118.398 91.7173 117.45 93.0544 117.45C94.3914 117.45 95.0599 118.398 95.0599 119.568Z" fill="#F3F4F6"/>
<path d="M120.286 120.356C120.286 128.155 124.694 136.711 130.853 136.711C137.013 136.711 146.964 130.356 146.964 118.706C146.964 107.762 136.214 103.869 125.106 105.868C118.298 107.093 120.286 112.557 120.286 120.356Z" fill="#D1D5DB"/>
<path d="M125.438 119.568C125.438 120.738 125.748 121.686 127.297 121.686C128.846 121.686 129.156 120.738 129.156 119.568C129.156 118.398 128.537 117.45 127.297 117.45C126.058 117.45 125.438 118.398 125.438 119.568Z" fill="#F3F4F6"/>
<path d="M103.06 131.715C102.677 131.158 101.914 131.017 101.357 131.4C100.799 131.783 100.658 132.546 101.041 133.103L103.06 131.715ZM111.034 129.959L112.192 129.561C112.022 129.067 111.557 128.735 111.034 128.735C110.51 128.735 110.045 129.067 109.875 129.561L111.034 129.959ZM121.026 133.103C121.409 132.546 121.268 131.783 120.71 131.4C120.153 131.017 119.39 131.158 119.007 131.715L121.026 133.103ZM101.041 133.103C101.41 133.639 102.084 134.364 102.989 134.962C103.903 135.566 105.117 136.084 106.542 136.084V133.634C105.722 133.634 104.971 133.336 104.34 132.919C103.702 132.497 103.253 131.996 103.06 131.715L101.041 133.103ZM106.542 136.084C108.268 136.084 109.569 134.855 110.396 133.761C111.265 132.612 111.88 131.264 112.192 130.358L109.875 129.561C109.625 130.288 109.118 131.39 108.442 132.283C107.726 133.23 107.062 133.634 106.542 133.634V136.084ZM109.875 130.358C110.187 131.264 110.802 132.612 111.671 133.761C112.498 134.855 113.799 136.084 115.525 136.084V133.634C115.005 133.634 114.341 133.23 113.625 132.283C112.949 131.39 112.442 130.288 112.192 129.561L109.875 130.358ZM115.525 136.084C116.95 136.084 118.165 135.566 119.078 134.962C119.983 134.364 120.657 133.639 121.026 133.103L119.007 131.715C118.814 131.996 118.365 132.497 117.727 132.919C117.096 133.336 116.345 133.634 115.525 133.634V136.084Z" fill="#D1D5DB"/>
<path d="M118.512 128.701C118.512 129.849 113.264 131.314 111.599 131.75C111.27 131.837 110.927 131.837 110.598 131.75C108.932 131.314 103.685 129.849 103.685 128.701C103.685 127.336 107.784 125.877 111.098 125.877C114.413 125.877 118.512 127.336 118.512 128.701Z" fill="#D1D5DB"/>
<path d="M112.187 91.2275C80.6756 93.2087 72.9898 83.1497 71.8369 78.9055L89.5142 69.0479L109.497 65.3513L137.166 79.727C135.501 83.1497 131.565 90.0092 112.187 91.2275Z" fill="#D1D5DB"/>
<path fill-rule="evenodd" clip-rule="evenodd" d="M105.201 168.248C145.571 168.248 175.166 156.289 175.166 124.118C175.166 83.8722 145.571 53.511 105.201 53.511C64.8311 53.511 35.9053 86.6965 35.9053 124.118C35.9053 156.289 64.8311 168.248 105.201 168.248ZM103.615 155.892C133.311 155.892 155.08 147.135 155.08 123.576C155.08 94.1031 133.311 71.8695 103.615 71.8695C73.9202 71.8695 52.6431 96.1714 52.6431 123.576C52.6431 147.135 73.9202 155.892 103.615 155.892Z" fill="#F3F4F6"/>
<path fill-rule="evenodd" clip-rule="evenodd" d="M19.3882 97.6709C23.8652 92.658 31.9342 93.4896 35.2947 99.3101L40.2163 107.835C43.5768 113.655 40.2624 121.059 33.6827 122.43L31.5427 122.875C31.4201 122.901 31.2975 122.924 31.1749 122.945C31.1287 123.072 31.0701 123.196 31.0013 123.314C29.0527 126.664 28.125 134.381 37.726 143.312C47.0809 152.014 55.1679 152.647 58.8905 151.718C59.1544 151.652 59.4285 151.633 59.693 151.666L60.1802 150.7C63.2071 144.7 71.2164 143.414 75.9689 148.167L82.9291 155.127C87.6815 159.88 86.3963 167.889 80.3956 170.916L79.9461 171.142C79.8228 171.338 79.6469 171.508 79.4182 171.632C67.5661 178.064 40.9229 174.955 26.3493 154.689C8.10847 129.322 9.94609 107.755 17.1382 100.059C17.2609 99.9281 17.4006 99.8273 17.5501 99.7558C17.6723 99.6012 17.7997 99.4497 17.9322 99.3013L19.3882 97.6709Z" fill="#D1D5DB"/>
<path d="M160.707 51.108C162.663 46.6605 164.401 45.8017 167.078 45.4C169.148 45.0822 170.85 44.6027 171.562 42.9855C172.273 41.3682 171.439 39.7732 169.859 39.0781C168.315 38.3991 166.396 38.8712 165.551 40.6928L159.707 38.1223C162.157 32.7516 167.231 32.0879 172.046 34.2057C177.375 36.5499 180.103 40.8203 178.05 45.4883C176.692 48.5758 174.197 49.7596 171.088 50.1466C168.585 50.4498 167.145 51.1321 166.11 53.4845L165.884 53.9991L160.481 51.6225L160.707 51.108ZM159.54 61.3418C157.702 60.5334 156.842 58.4004 157.703 56.542C158.458 54.7248 160.612 53.9174 162.45 54.7258C164.214 55.5018 165.111 57.651 164.356 59.4682C163.494 61.3266 161.304 62.1178 159.54 61.3418Z" fill="#D1D5DB"/>
<path d="M177.904 64.7191C180.489 62.0522 181.962 61.8988 183.987 62.3227C185.555 62.6452 186.902 62.7542 187.842 61.7844C188.782 60.8147 188.608 59.4501 187.66 58.5318C186.735 57.6348 185.234 57.4631 184.145 58.5437L180.64 55.1481C183.824 51.9509 187.636 52.8241 190.523 55.6218C193.719 58.7184 194.538 62.5037 191.826 65.3028C190.032 67.1541 187.929 67.3392 185.598 66.7899C183.725 66.342 182.511 66.4479 181.144 67.8585L180.845 68.167L177.605 65.0277L177.904 64.7191ZM174.347 71.742C173.245 70.6742 173.196 68.917 174.307 67.8143C175.331 66.713 177.089 66.707 178.191 67.7748C179.249 68.7999 179.321 70.5785 178.296 71.6798C177.185 72.7825 175.405 72.7671 174.347 71.742Z" fill="#D1D5DB"/>
</g>
<defs>
<clipPath id="clip0_12825_13028">
<rect width="200" height="200" fill="white"/>
</clipPath>
</defs>
</svg>
