<svg width="74" height="84" viewBox="0 0 74 84" fill="none" xmlns="http://www.w3.org/2000/svg">
<path d="M23 24H51" stroke="#9CA3AF" stroke-width="4" stroke-linecap="round"/>
<path d="M37 38V10" stroke="#9CA3AF" stroke-width="4" stroke-linecap="round"/>
<path d="M12.0156 65.375V79.2969H10.7812V65.375H12.0156ZM4.625 66.4531C6.6875 66.4688 8.17188 68.3438 8.17188 71.2969C8.17188 74.25 6.6875 76.125 4.625 76.125C2.54688 76.125 1.07812 74.25 1.07812 71.2969C1.07812 68.3438 2.54688 66.4688 4.625 66.4531ZM4.625 67.5469C3.23438 67.5625 2.26562 69.0312 2.26562 71.2969C2.26562 73.5625 3.23438 75.0312 4.625 75.0312C6.01562 75.0312 6.98438 73.5625 6.98438 71.2969C6.98438 69.0312 6.01562 67.5625 4.625 67.5469ZM21.625 66.75V75.7812H15.2031V66.75H21.625ZM16.4062 67.7344V74.7812H20.4219V67.7344H16.4062ZM25.8438 65.375V79.2969H24.6094V65.375H25.8438ZM33.1875 69.6406C33.1875 72 34.9062 74.3906 36.9531 75.2812L36.2656 76.25C34.6406 75.5078 33.2344 73.9062 32.5938 71.9844C31.9375 74.0234 30.5391 75.7969 28.9531 76.5938L28.2188 75.625C30.2031 74.6719 31.9375 72.0469 31.9531 69.6406V67.8281H28.6719V66.8125H36.5V67.8281H33.1875V69.6406ZM39.6719 65.375V79.2656H38.4375V65.375H39.6719ZM58.7344 71.9844V73.0156H46.0625V71.9844H58.7344ZM57.25 69.6562V70.6562H47.6719V65.9375H57.1562V66.9688H48.875V69.6562H57.25ZM52.3906 74.2344C55.375 74.2344 57.1562 75.1406 57.1719 76.7344C57.1562 78.3438 55.375 79.2344 52.3906 79.2344C49.3906 79.2344 47.5938 78.3438 47.5938 76.7344C47.5938 75.1406 49.3906 74.2344 52.3906 74.2344ZM52.3906 75.1875C50.1562 75.2031 48.8281 75.7656 48.8438 76.7344C48.8281 77.7188 50.1562 78.2656 52.3906 78.2656C54.5938 78.2656 55.9375 77.7188 55.9375 76.7344C55.9375 75.7656 54.5938 75.2031 52.3906 75.1875ZM72.5938 73.0312V74.0469H59.875V73.0312H65.625V71.5625H61.5312V68.1719H69.7188V66.7344H61.4844V65.7344H70.9531V69.0938H62.75V70.5781H71.25V71.5625H66.8281V73.0312H72.5938ZM71.0312 75.1094V79.1406H69.7969V76.1094H61.2969V75.1094H71.0312Z" fill="#9CA3AF"/>
</svg>
