<svg width="14" height="12" viewBox="0 0 14 12" fill="none" xmlns="http://www.w3.org/2000/svg">
<path d="M2.55742 7.31157C2.40771 7.18016 2.28795 7.07475 2.20016 6.99739V6.95147L2.02443 6.77574C1.33062 6.08193 0.933496 5.16547 0.933496 4.2V4.07612C0.994965 2.2062 2.59203 0.666667 4.46683 0.666667C4.74511 0.666667 5.11432 0.763435 5.48237 0.961616C5.8297 1.14864 6.13457 1.40383 6.33701 1.68842C6.6315 2.31494 7.5393 2.30366 7.81169 1.65457C7.97943 1.36092 8.27342 1.0955 8.62574 0.899018C8.99336 0.693998 9.35982 0.6 9.60016 0.6C11.5295 0.6 13.0718 2.12742 13.1335 4.07581V4.2C13.1335 5.24201 12.7301 6.14473 12.0614 6.75771L11.8668 6.93606V6.97957C11.7658 7.06525 11.6354 7.17766 11.4835 7.30974C11.1464 7.6029 10.695 7.99999 10.2034 8.43321C10.0457 8.5722 9.8839 8.71492 9.7203 8.85919C8.86406 9.61426 7.95952 10.4119 7.34616 10.9417C7.16963 11.0861 6.89736 11.0861 6.72083 10.9417C5.98862 10.3093 4.82602 9.2962 3.83666 8.43155C3.34104 7.9984 2.88929 7.60286 2.55742 7.31157Z" stroke="#6B7280" stroke-width="1.2"/>
</svg>
