<svg width="996" height="472" viewBox="0 0 996 472" fill="none" xmlns="http://www.w3.org/2000/svg">
<ellipse cx="497" cy="491" rx="499" ry="197" fill="#E3A578"/>
<ellipse cx="497" cy="491" rx="499" ry="197" fill="url(#paint0_linear_14817_822)"/>
<path d="M319.371 370.35C308.971 372.35 303.538 364.85 301.871 361.85L322.871 341.35L334.871 352.85C336.871 357.35 333.371 367.658 319.371 370.35Z" fill="white"/>
<path d="M258.114 86.9819C263.471 100.821 253.932 117.412 241.754 122.126C229.576 126.84 211.853 120.801 206.497 106.962C201.14 93.1236 208.083 72.7 220.261 67.9861C236.5 61.7003 252.758 73.1432 258.114 86.9819Z" fill="#222327"/>
<path d="M264.982 86.3847C262.094 100.94 274.354 115.636 287.163 118.177C299.972 120.718 316.386 111.711 319.274 97.155C322.161 82.5994 311.797 63.6809 298.988 61.1399C281.908 57.7516 267.869 71.8291 264.982 86.3847Z" fill="#222327"/>
<path d="M390.893 192.505C390.893 241.474 343.385 259.677 278.582 259.677C213.778 259.677 167.344 241.474 167.344 192.505C167.344 135.543 213.778 85.0292 278.582 85.0292C343.385 85.0292 390.893 131.244 390.893 192.505Z" fill="white"/>
<path d="M233.609 316.619C233.609 295.75 240.314 264.261 246.281 251.126H329.478C335.269 262.781 340.907 292.198 340.486 316.619C339.959 347.145 312.055 349.365 286.257 350.476C260.46 351.586 233.609 342.705 233.609 316.619Z" fill="white"/>
<rect x="308.352" y="259.392" width="44.7486" height="57.0199" rx="22.3743" transform="rotate(-21.5019 308.352 259.392)" fill="#222327"/>
<path d="M306.807 363.388C294.719 360.298 286.359 360.157 266.799 341.946L302.253 320.719C306.446 316.067 316.867 308.197 325.016 313.939C335.202 321.117 342.531 335.67 342.019 338.896C341.609 341.477 336.277 346.731 333.663 349.036L322.75 357.068C321.058 362.16 317.722 366.178 306.807 363.388Z" fill="white"/>
<path d="M337.726 329.875C346.918 340.98 345.349 346.313 342.416 350.376L335.044 340.964C334.312 336.886 332.971 324.129 337.726 329.875Z" fill="white"/>
<path d="M320.103 346.33C319.109 347.822 298.765 358.553 294 360.625C294.621 361.868 303.102 360.812 308.916 358.139C315.5 355.112 321.346 344.466 320.103 346.33Z" fill="#F2F2F2"/>
<path d="M246.975 327.363C253.928 317.328 257.003 309.636 279.732 298.373L285.653 339.212C288.214 344.847 291.371 357.465 283.505 362.851C273.672 369.585 258.441 370.894 255.818 369.205C253.721 367.853 251.039 360.936 249.96 357.646L246.836 344.511C243.009 341.027 240.697 336.424 246.975 327.363Z" fill="white"/>
<path d="M263.021 370.246C249.272 374.579 243.495 371.18 238.78 361.035L253.757 363.585C257.811 364.443 270.134 368.004 263.021 370.246Z" fill="white"/>
<path d="M315 331.612C321.634 355.017 308.495 361.627 255.203 372.21L257.911 349.339L283.5 331.612C299.503 322.457 311.885 320.624 315 331.612Z" fill="white"/>
<path d="M259.806 371.641C251.31 375.59 242.371 372.515 235.948 358.694C229.526 344.873 229.952 333.642 238.448 329.694C246.945 325.746 255.752 324.287 264.5 343.112C270.922 356.933 272.948 365.534 259.806 371.641Z" fill="white"/>
<path d="M252.592 365.85C248.678 367.154 242.588 362.571 240.666 356.802C238.388 349.963 238.938 344.484 244.001 342.797C248.54 341.285 255.544 341.292 258.646 350.606C260.924 357.445 259.265 363.627 252.592 365.85Z" fill="#222327"/>
<path fill-rule="evenodd" clip-rule="evenodd" d="M233.509 315.714C245.324 318.39 260.771 320.087 280.399 319.491C304.138 318.771 324.245 315.799 339.892 312.311C339.613 291.037 335.228 267.193 330.373 254.855C317.118 258.142 301.981 259.637 285.59 259.637C270.615 259.637 256.752 258.389 244.445 255.667C239.118 270.105 233.755 296.838 233.509 315.714Z" fill="#222327"/>
<path d="M305.319 290.902C308.168 265.311 321.171 258.078 333.394 254.556C338.366 253.123 346.445 253.313 350.796 255.178C356.063 257.435 361.983 262.014 366.334 272.58C370.684 283.145 376.171 298.982 378.657 315.141L378.69 315.357C381.178 331.52 384.97 356.16 335.47 356.16C294.687 356.16 302.726 314.197 305.319 290.902Z" fill="#3786E2"/>
<path d="M324.9 306.402C314.086 300.424 310.166 286.81 316.145 275.996L318.451 271.824C323.449 262.783 333.988 258.34 343.951 261.073L348.021 262.189C361.873 265.989 368.608 281.67 361.826 294.331L358.966 299.67C352.987 310.484 339.374 314.404 328.559 308.425L324.9 306.402Z" fill="#222327"/>
<path d="M339.539 324.901C340.196 326.64 338.985 328.708 337.455 329.287C335.925 329.865 333.711 329.092 333.054 327.353C332.397 325.614 333.286 323.063 334.816 322.484C336.856 321.713 338.882 323.162 339.539 324.901Z" fill="#2D68AE"/>
<path d="M347.605 323.898C347.229 325.718 348.75 327.571 350.352 327.902C351.954 328.233 354.019 327.121 354.395 325.3C354.771 323.48 353.491 321.1 351.889 320.769C349.753 320.328 347.981 322.078 347.605 323.898Z" fill="#2D68AE"/>
<path d="M356.527 333.109C356.946 338.404 351.93 340.781 344.877 341.338C337.824 341.896 332.615 340.327 332.196 335.033C331.709 328.874 335.198 323.65 343.427 323C351.657 322.349 356.003 326.485 356.527 333.109Z" fill="#2D68AE"/>
<path d="M342.544 332.618C342.665 334.154 341.848 335.914 340.52 336.019C339.192 336.124 336.947 335.042 336.766 332.747C336.596 330.592 338.853 329.642 341.279 329.846C342.766 329.972 342.422 331.082 342.544 332.618Z" fill="#3475C2"/>
<path d="M340.042 332.585C340.065 332.886 340.176 333.123 340.629 333.087C341.083 333.051 341.155 332.8 341.131 332.499C341.107 332.198 340.907 331.969 340.543 331.997C340.18 332.026 340.018 332.284 340.042 332.585Z" fill="white"/>
<path d="M345.928 332.35C346.05 333.886 347.134 335.496 348.462 335.391C349.79 335.286 351.836 333.865 351.655 331.57C351.484 329.415 349.106 328.832 346.742 329.415C345.293 329.772 345.807 330.814 345.928 332.35Z" fill="#3475C2"/>
<path d="M348.394 331.925C348.418 332.226 348.347 332.477 347.893 332.513C347.439 332.549 347.329 332.312 347.305 332.011C347.281 331.71 347.443 331.452 347.806 331.423C348.17 331.395 348.37 331.624 348.394 331.925Z" fill="white"/>
<path d="M360.396 191.939C360.396 227.837 327.112 241.181 281.71 241.181C236.308 241.181 203.776 227.837 203.776 191.939C203.776 150.181 236.308 113.151 281.71 113.151C327.112 113.151 360.396 147.03 360.396 191.939Z" fill="#F3D6DD"/>
<path d="M277.421 186.933C277.421 198.804 270.182 211.828 260.066 211.828C249.95 211.828 233.609 202.155 233.609 184.421C233.609 167.763 251.262 161.838 269.504 164.88C280.685 166.745 277.421 175.062 277.421 186.933Z" fill="#222327"/>
<path d="M268.958 185.733C268.958 187.514 268.449 188.958 265.905 188.958C263.361 188.958 262.852 187.514 262.852 185.733C262.852 183.953 263.87 182.509 265.905 182.509C267.94 182.509 268.958 183.953 268.958 185.733Z" fill="white"/>
<path d="M307.358 186.933C307.358 198.804 314.067 211.828 323.444 211.828C332.82 211.828 347.966 202.155 347.966 184.421C347.966 167.763 331.604 161.838 314.696 164.88C304.333 166.745 307.358 175.061 307.358 186.933Z" fill="#222327"/>
<path d="M315.202 185.733C315.202 187.514 315.674 188.958 318.032 188.958C320.39 188.958 320.861 187.514 320.861 185.733C320.861 183.953 319.918 182.509 318.032 182.509C316.145 182.509 315.202 183.953 315.202 185.733Z" fill="white"/>
<path d="M281.137 204.222C280.553 203.373 279.392 203.158 278.544 203.742C277.695 204.325 277.48 205.486 278.064 206.334L281.137 204.222ZM293.273 201.549L295.037 200.943C294.778 200.19 294.069 199.685 293.273 199.685C292.477 199.685 291.769 200.19 291.51 200.943L293.273 201.549ZM308.483 206.334C309.066 205.486 308.851 204.325 308.003 203.742C307.154 203.158 305.993 203.373 305.41 204.222L308.483 206.334ZM278.064 206.334C278.624 207.15 279.65 208.253 281.029 209.164C282.419 210.083 284.267 210.872 286.437 210.872V207.143C285.188 207.143 284.045 206.688 283.085 206.053C282.114 205.411 281.431 204.649 281.137 204.222L278.064 206.334ZM286.437 210.872C289.064 210.872 291.044 209 292.304 207.335C293.626 205.587 294.562 203.535 295.037 202.155L291.51 200.943C291.13 202.049 290.357 203.726 289.329 205.086C288.239 206.528 287.227 207.143 286.437 207.143V210.872ZM291.51 202.155C291.984 203.535 292.921 205.587 294.243 207.335C295.502 209 297.482 210.872 300.11 210.872V207.143C299.319 207.143 298.308 206.528 297.217 205.086C296.189 203.726 295.417 202.049 295.037 200.943L291.51 202.155ZM300.11 210.872C302.279 210.872 304.128 210.083 305.518 209.164C306.896 208.253 307.922 207.15 308.483 206.334L305.41 204.222C305.116 204.649 304.433 205.411 303.461 206.053C302.501 206.688 301.359 207.143 300.11 207.143V210.872Z" fill="#222327"/>
<path d="M304.656 199.633C304.656 201.381 296.668 203.611 294.133 204.275C293.632 204.406 293.11 204.406 292.609 204.275C290.074 203.611 282.086 201.381 282.086 199.633C282.086 197.556 288.326 195.334 293.371 195.334C298.416 195.334 304.656 197.556 304.656 199.633Z" fill="#222327"/>
<path d="M295.028 142.594C247.062 145.61 235.364 130.299 233.609 123.838L260.516 108.833L290.934 103.207L333.05 125.089C330.515 130.299 324.525 140.74 295.028 142.594Z" fill="#222327"/>
<path fill-rule="evenodd" clip-rule="evenodd" d="M284.395 259.831C345.845 259.831 390.893 241.628 390.893 192.658C390.893 131.397 345.845 85.183 284.395 85.183C222.946 85.183 178.916 135.696 178.916 192.658C178.916 241.628 222.946 259.831 284.395 259.831ZM281.982 241.022C327.183 241.022 360.319 227.692 360.319 191.832C360.319 146.97 327.183 113.127 281.982 113.127C236.781 113.127 204.394 150.118 204.394 191.832C204.394 227.692 236.781 241.022 281.982 241.022Z" fill="white"/>
<path d="M214.342 233.723C225.372 250.256 240.445 255.476 251.011 258.584L276.108 292.492C275.694 296.636 261.635 314.494 209.926 295.6C150.882 274.026 159.945 221.907 176.046 214.804C197.177 205.481 206.647 222.189 214.342 233.723Z" fill="#222327"/>
<rect x="259.025" y="266.042" width="6.21508" height="18.6452" rx="3.10754" fill="white"/>
<path fill-rule="evenodd" clip-rule="evenodd" d="M259.025 280.958V281.579C259.025 283.296 260.416 284.687 262.132 284.687C263.848 284.687 265.24 283.296 265.24 281.579V280.958H259.025Z" fill="#256FC5"/>
<rect x="288.302" y="266.042" width="6.21508" height="18.6452" rx="3.10754" fill="white"/>
<path fill-rule="evenodd" clip-rule="evenodd" d="M288.302 280.958V281.579C288.302 283.296 289.693 284.687 291.409 284.687C293.125 284.687 294.517 283.296 294.517 281.579V280.958H288.302Z" fill="#256FC5"/>
<path d="M241.839 336.458C242.712 336.134 243.786 336.859 244.24 338.078C244.693 339.297 245.06 340.286 243.48 340.873C241.9 341.46 241.532 340.472 241.079 339.253C240.626 338.034 240.966 336.782 241.839 336.458Z" fill="#222327"/>
<path d="M237.414 338.736C238.196 338.229 239.403 338.703 240.11 339.795C240.818 340.886 241.391 341.771 239.977 342.688C238.562 343.605 237.988 342.72 237.281 341.629C236.573 340.538 236.633 339.242 237.414 338.736Z" fill="#222327"/>
<path d="M247.144 335.173C246.213 335.207 245.497 336.288 245.545 337.588C245.592 338.887 245.63 339.941 247.315 339.88C249 339.819 248.961 338.765 248.914 337.465C248.867 336.166 248.074 335.139 247.144 335.173Z" fill="#222327"/>
<path d="M699.522 388.35C709.922 390.35 715.355 382.85 717.022 379.85L696.022 359.35L684.022 370.85C682.022 375.35 685.522 385.658 699.522 388.35Z" fill="white"/>
<path d="M760.779 104.982C755.422 118.821 764.961 135.412 777.139 140.126C789.317 144.84 807.04 138.801 812.397 124.962C817.753 111.124 810.811 90.7 798.632 85.9861C782.394 79.7003 766.136 91.1432 760.779 104.982Z" fill="#222327"/>
<path d="M753.912 104.385C756.799 118.94 744.539 133.636 731.73 136.177C718.921 138.718 702.507 129.711 699.62 115.155C696.732 100.599 707.096 81.6809 719.905 79.1399C736.985 75.7516 751.024 89.8291 753.912 104.385Z" fill="#222327"/>
<path d="M628 210.505C628 259.474 675.508 277.677 740.312 277.677C805.116 277.677 851.549 259.474 851.549 210.505C851.549 153.543 805.116 103.029 740.312 103.029C675.508 103.029 628 149.244 628 210.505Z" fill="white"/>
<path d="M785.285 334.619C785.285 313.75 778.579 282.261 772.612 269.126H689.416C683.624 280.781 677.986 310.198 678.408 334.619C678.934 365.145 706.838 367.365 732.636 368.476C758.434 369.586 785.285 360.705 785.285 334.619Z" fill="white"/>
<rect width="44.7486" height="57.0199" rx="22.3743" transform="matrix(-0.930405 -0.366532 -0.366532 0.930405 710.541 277.392)" fill="#222327"/>
<path d="M712.086 381.388C724.174 378.298 732.535 378.157 752.095 359.946L716.64 338.719C712.448 334.067 702.026 326.197 693.878 331.939C683.692 339.117 676.363 353.67 676.875 356.896C677.284 359.477 682.616 364.731 685.231 367.036L696.144 375.068C697.835 380.16 701.171 384.178 712.086 381.388Z" fill="white"/>
<path d="M681.167 347.875C671.975 358.98 673.544 364.313 676.477 368.376L683.849 358.964C684.581 354.886 685.922 342.129 681.167 347.875Z" fill="white"/>
<path d="M698.79 364.33C699.785 365.822 720.129 376.553 724.894 378.625C724.272 379.868 715.791 378.812 709.977 376.139C703.394 373.112 697.547 362.466 698.79 364.33Z" fill="#F2F2F2"/>
<path d="M771.918 345.363C764.965 335.328 761.89 327.636 739.162 316.373L733.241 357.212C730.679 362.847 727.522 375.465 735.389 380.851C745.222 387.585 760.453 388.894 763.075 387.205C765.173 385.853 767.855 378.936 768.933 375.646L772.058 362.511C775.884 359.027 778.196 354.424 771.918 345.363Z" fill="white"/>
<path d="M755.873 388.246C769.622 392.579 775.399 389.18 780.113 379.035L765.136 381.586C761.082 382.443 748.759 386.004 755.873 388.246Z" fill="white"/>
<path d="M703.894 349.612C697.259 373.017 710.398 379.627 763.69 390.21L760.982 367.339L735.394 349.612C719.39 340.457 707.008 338.624 703.894 349.612Z" fill="white"/>
<path d="M759.087 389.641C767.584 393.59 776.523 390.515 782.945 376.694C789.368 362.873 788.942 351.642 780.445 347.694C771.948 343.746 763.142 342.287 754.394 361.112C747.971 374.933 745.945 383.534 759.087 389.641Z" fill="white"/>
<path d="M766.302 383.85C770.216 385.154 776.306 380.571 778.227 374.802C780.505 367.963 779.956 362.484 774.893 360.797C770.353 359.285 763.349 359.292 760.247 368.606C757.969 375.445 759.628 381.627 766.302 383.85Z" fill="#222327"/>
<path fill-rule="evenodd" clip-rule="evenodd" d="M785.385 333.714C773.57 336.39 758.122 338.087 738.494 337.491C714.756 336.771 694.648 333.799 679.002 330.311C679.281 309.037 683.666 285.193 688.52 272.855C701.776 276.142 716.913 277.637 733.304 277.637C748.279 277.637 762.142 276.389 774.448 273.667C779.775 288.105 785.138 314.838 785.385 333.714Z" fill="#222327"/>
<path d="M713.574 308.902C710.726 283.311 697.723 276.078 685.5 272.556C680.528 271.123 672.448 271.313 668.097 273.178C662.831 275.435 656.91 280.014 652.56 290.58C648.209 301.145 642.722 316.982 640.236 333.141L640.203 333.357C637.716 349.52 633.923 374.16 683.423 374.16C724.207 374.16 716.167 332.197 713.574 308.902Z" fill="#3786E2"/>
<path d="M693.993 324.402C704.808 318.424 708.728 304.81 702.749 293.996L700.442 289.824C695.444 280.783 684.905 276.34 674.943 279.073L670.872 280.189C657.021 283.989 650.286 299.67 657.068 312.331L659.928 317.67C665.906 328.484 679.52 332.404 690.334 326.425L693.993 324.402Z" fill="#222327"/>
<path d="M679.354 342.901C678.697 344.64 679.908 346.708 681.438 347.287C682.968 347.865 685.182 347.092 685.839 345.353C686.497 343.614 685.607 341.063 684.077 340.484C682.037 339.713 680.012 341.162 679.354 342.901Z" fill="#2D68AE"/>
<path d="M671.289 341.898C671.665 343.718 670.143 345.571 668.541 345.902C666.94 346.233 664.875 345.121 664.499 343.3C664.123 341.48 665.402 339.1 667.004 338.769C669.14 338.328 670.913 340.078 671.289 341.898Z" fill="#2D68AE"/>
<path d="M662.366 351.109C661.948 356.404 666.963 358.781 674.016 359.338C681.069 359.896 686.279 358.327 686.697 353.033C687.184 346.874 683.695 341.65 675.466 341C667.237 340.349 662.89 344.485 662.366 351.109Z" fill="#2D68AE"/>
<path d="M676.35 350.618C676.228 352.154 677.045 353.914 678.374 354.019C679.702 354.124 681.946 353.042 682.127 350.747C682.298 348.592 680.041 347.642 677.615 347.846C676.128 347.972 676.471 349.082 676.35 350.618Z" fill="#3475C2"/>
<path d="M678.852 350.585C678.828 350.886 678.718 351.123 678.264 351.087C677.81 351.051 677.739 350.8 677.762 350.499C677.786 350.198 677.987 349.969 678.35 349.997C678.713 350.026 678.876 350.284 678.852 350.585Z" fill="white"/>
<path d="M672.965 350.35C672.844 351.886 671.76 353.496 670.432 353.391C669.104 353.286 667.057 351.865 667.239 349.57C667.409 347.415 669.787 346.832 672.151 347.415C673.6 347.772 673.086 348.814 672.965 350.35Z" fill="#3475C2"/>
<path d="M670.499 349.925C670.475 350.226 670.547 350.477 671.001 350.513C671.455 350.549 671.565 350.312 671.589 350.011C671.612 349.71 671.45 349.452 671.087 349.423C670.724 349.395 670.523 349.624 670.499 349.925Z" fill="white"/>
<path d="M658.497 209.939C658.497 245.837 691.782 259.181 737.184 259.181C782.586 259.181 815.117 245.837 815.117 209.939C815.117 168.181 782.586 131.151 737.184 131.151C691.782 131.151 658.497 165.03 658.497 209.939Z" fill="#F3D6DD"/>
<path d="M741.472 204.933C741.472 216.804 748.711 229.828 758.827 229.828C768.943 229.828 785.285 220.155 785.285 202.421C785.285 185.763 767.631 179.838 749.389 182.88C738.209 184.745 741.472 193.062 741.472 204.933Z" fill="#222327"/>
<path d="M711.536 204.933C711.536 216.804 704.826 229.828 695.45 229.828C686.074 229.828 670.927 220.155 670.927 202.421C670.927 185.763 687.29 179.838 704.198 182.88C714.561 184.745 711.536 193.061 711.536 204.933Z" fill="#222327"/>
<path d="M737.757 222.222C738.34 221.373 739.501 221.158 740.35 221.742C741.198 222.325 741.413 223.486 740.83 224.334L737.757 222.222ZM725.62 219.549L723.857 218.943C724.116 218.19 724.824 217.685 725.62 217.685C726.416 217.685 727.125 218.19 727.383 218.943L725.62 219.549ZM710.41 224.334C709.827 223.486 710.042 222.325 710.891 221.742C711.739 221.158 712.9 221.373 713.483 222.222L710.41 224.334ZM740.83 224.334C740.269 225.15 739.243 226.253 737.865 227.164C736.475 228.083 734.626 228.872 732.457 228.872V225.143C733.705 225.143 734.848 224.688 735.808 224.053C736.78 223.411 737.463 222.649 737.757 222.222L740.83 224.334ZM732.457 228.872C729.829 228.872 727.849 227 726.59 225.335C725.268 223.587 724.331 221.535 723.857 220.155L727.383 218.943C727.764 220.049 728.536 221.726 729.564 223.086C730.655 224.528 731.666 225.143 732.457 225.143V228.872ZM727.383 220.155C726.909 221.535 725.972 223.587 724.65 225.335C723.391 227 721.411 228.872 718.783 228.872V225.143C719.574 225.143 720.585 224.528 721.676 223.086C722.704 221.726 723.476 220.049 723.857 218.943L727.383 220.155ZM718.783 228.872C716.614 228.872 714.766 228.083 713.375 227.164C711.997 226.253 710.971 225.15 710.41 224.334L713.483 222.222C713.777 222.649 714.46 223.411 715.432 224.053C716.392 224.688 717.535 225.143 718.783 225.143V228.872Z" fill="#222327"/>
<path d="M714.237 217.633C714.237 219.381 722.225 221.611 724.76 222.275C725.261 222.406 725.783 222.406 726.284 222.275C728.819 221.611 736.807 219.381 736.807 217.633C736.807 215.556 730.568 213.334 725.522 213.334C720.477 213.334 714.237 215.556 714.237 217.633Z" fill="#222327"/>
<path d="M723.865 160.594C771.831 163.61 783.53 148.299 785.285 141.838L758.377 126.833L727.96 121.207L685.844 143.089C688.378 148.299 694.369 158.74 723.865 160.594Z" fill="#222327"/>
<path fill-rule="evenodd" clip-rule="evenodd" d="M734.498 277.831C673.049 277.831 628 259.628 628 210.658C628 149.397 673.049 103.183 734.498 103.183C795.948 103.183 839.977 153.696 839.977 210.658C839.977 259.628 795.948 277.831 734.498 277.831ZM736.912 259.022C691.711 259.022 658.574 245.692 658.574 209.832C658.574 164.97 691.711 131.127 736.912 131.127C782.112 131.127 814.5 168.118 814.5 209.832C814.5 245.692 782.112 259.022 736.912 259.022Z" fill="white"/>
<path d="M801 259.5C789.97 276.033 778.448 273.476 767.882 276.584L742.785 310.492C743.199 314.636 757.258 332.494 808.968 313.6C868.011 292.026 854.5 232.5 835 228C803.441 220.717 808.695 247.966 801 259.5Z" fill="#222327"/>
<rect width="6.21508" height="18.6452" rx="3.10754" transform="matrix(-1 0 0 1 759.869 284.042)" fill="white"/>
<path fill-rule="evenodd" clip-rule="evenodd" d="M759.869 298.958V299.579C759.869 301.296 758.477 302.687 756.761 302.687C755.045 302.687 753.654 301.296 753.654 299.579V298.958H759.869Z" fill="#256FC5"/>
<rect width="6.21508" height="18.6452" rx="3.10754" transform="matrix(-1 0 0 1 730.592 284.042)" fill="white"/>
<path fill-rule="evenodd" clip-rule="evenodd" d="M730.592 298.958V299.579C730.592 301.296 729.2 302.687 727.484 302.687C725.768 302.687 724.377 301.296 724.377 299.579V298.958H730.592Z" fill="#256FC5"/>
<path d="M777.055 354.458C776.182 354.134 775.107 354.859 774.654 356.078C774.201 357.297 773.833 358.286 775.414 358.873C776.994 359.46 777.361 358.472 777.814 357.253C778.267 356.034 777.927 354.782 777.055 354.458Z" fill="#222327"/>
<path d="M781.479 356.736C780.698 356.229 779.491 356.703 778.783 357.795C778.076 358.886 777.502 359.771 778.917 360.688C780.331 361.605 780.905 360.72 781.613 359.629C782.32 358.538 782.26 357.242 781.479 356.736Z" fill="#222327"/>
<path d="M771.749 353.173C772.68 353.207 773.396 354.288 773.349 355.588C773.302 356.887 773.263 357.941 771.578 357.88C769.894 357.819 769.932 356.765 769.979 355.465C770.026 354.166 770.819 353.139 771.749 353.173Z" fill="#222327"/>
<path d="M752.935 203.486C753.143 202.657 754.8 201 757.286 201C759.772 201 761.429 202.657 762.258 203.486" stroke="white" stroke-width="2.98324" stroke-linecap="round"/>
<path d="M706.323 203.486C706.115 202.657 704.458 201 701.972 201C699.486 201 697.829 202.657 697 203.486" stroke="white" stroke-width="2.98324" stroke-linecap="round"/>
<path fill-rule="evenodd" clip-rule="evenodd" d="M399 0C385.745 0 375 10.7452 375 24V76C375 89.2548 385.745 100 399 100H397.5V123.5L438 100H544C557.255 100 568 89.2548 568 76V24C568 10.7452 557.255 0 544 0H399Z" fill="#97C7FF"/>
<circle cx="424" cy="50" r="25" fill="#52A2FF"/>
<ellipse cx="424" cy="46.5" rx="2" ry="3.5" fill="#1E86FF"/>
<ellipse cx="439.5" cy="47" rx="1.5" ry="3" fill="#1E86FF"/>
<path fill-rule="evenodd" clip-rule="evenodd" d="M426.748 53.2747C426.498 59.9152 426.635 65.3267 431 65.5001C435.365 65.6734 438.263 60.3824 438.644 53.7471L426.748 53.2747Z" fill="#1E86FF"/>
<rect x="462" y="27" width="76" height="9" rx="4.5" fill="#52A2FF"/>
<rect x="462" y="45" width="51" height="9" rx="4.5" fill="#52A2FF"/>
<rect x="462" y="63" width="34" height="9" rx="4.5" fill="#52A2FF"/>
<path fill-rule="evenodd" clip-rule="evenodd" d="M594 112C607.255 112 618 122.745 618 136V179C618 192.255 607.255 203 594 203H595.5V226.5L555 203H449C435.745 203 425 192.255 425 179V136C425 122.745 435.745 112 449 112H594Z" fill="#97C7FF"/>
<path d="M451.352 144.417C452.339 142.043 455.702 142.043 456.69 144.417L458.237 148.137C458.653 149.138 459.594 149.821 460.675 149.908L464.691 150.23C467.254 150.435 468.293 153.634 466.34 155.306L463.281 157.927C462.457 158.633 462.098 159.739 462.349 160.793L463.284 164.712C463.881 167.213 461.16 169.19 458.966 167.85L455.528 165.75C454.603 165.185 453.439 165.185 452.514 165.75L449.076 167.85C446.882 169.19 444.161 167.213 444.758 164.712L445.692 160.793C445.944 159.739 445.584 158.633 444.761 157.927L441.701 155.306C439.749 153.634 440.788 150.435 443.351 150.23L447.367 149.908C448.447 149.821 449.388 149.138 449.805 148.137L451.352 144.417Z" fill="#52A2FF"/>
<path d="M486.046 144.417C487.033 142.043 490.396 142.043 491.383 144.417L492.931 148.137C493.347 149.138 494.288 149.821 495.368 149.908L499.384 150.23C501.947 150.435 502.987 153.634 501.034 155.306L497.974 157.927C497.151 158.633 496.791 159.739 497.043 160.793L497.978 164.712C498.574 167.213 495.854 169.19 493.659 167.85L490.221 165.75C489.296 165.185 488.133 165.185 487.208 165.75L483.77 167.85C481.575 169.19 478.855 167.213 479.451 164.712L480.386 160.793C480.637 159.739 480.278 158.633 479.455 157.927L476.395 155.306C474.442 153.634 475.482 150.435 478.045 150.23L482.06 149.908C483.141 149.821 484.082 149.138 484.498 148.137L486.046 144.417Z" fill="#52A2FF"/>
<path d="M518.999 144.2C520 141.864 523.312 141.864 524.313 144.2L526.01 148.159C526.433 149.148 527.37 149.819 528.442 149.903L532.688 150.233C535.275 150.434 536.307 153.678 534.312 155.337L531.206 157.92C530.355 158.627 529.983 159.758 530.247 160.832L531.218 164.783C531.829 167.272 529.141 169.266 526.937 167.96L523.13 165.703C522.221 165.164 521.091 165.164 520.182 165.703L516.376 167.96C514.172 169.266 511.483 167.272 512.095 164.783L513.066 160.832C513.33 159.758 512.957 158.627 512.107 157.92L509.001 155.337C507.005 153.678 508.037 150.434 510.624 150.233L514.87 149.903C515.942 149.819 516.879 149.148 517.303 148.159L518.999 144.2Z" fill="#52A2FF"/>
<path d="M551.929 144.417C552.917 142.043 556.28 142.043 557.267 144.417L558.814 148.137C559.231 149.138 560.172 149.821 561.252 149.908L565.268 150.23C567.831 150.435 568.87 153.634 566.918 155.306L563.858 157.927C563.035 158.633 562.675 159.739 562.927 160.793L563.861 164.712C564.458 167.213 561.737 169.19 559.543 167.85L556.105 165.75C555.18 165.185 554.016 165.185 553.091 165.75L549.653 167.85C547.459 169.19 544.738 167.213 545.335 164.712L546.27 160.793C546.521 159.739 546.162 158.633 545.338 157.927L542.279 155.306C540.326 153.634 541.365 150.435 543.928 150.23L547.944 149.908C549.025 149.821 549.966 149.138 550.382 148.137L551.929 144.417Z" fill="#52A2FF"/>
<path d="M584.31 144.417C585.298 142.043 588.661 142.043 589.648 144.417L591.195 148.137C591.611 149.138 592.553 149.821 593.633 149.908L597.649 150.23C600.212 150.435 601.251 153.634 599.299 155.306L596.239 157.927C595.416 158.633 595.056 159.739 595.308 160.793L596.242 164.712C596.839 167.213 594.118 169.19 591.924 167.85L588.486 165.75C587.561 165.185 586.397 165.185 585.472 165.75L582.034 167.85C579.84 169.19 577.119 167.213 577.716 164.712L578.651 160.793C578.902 159.739 578.543 158.633 577.719 157.927L574.66 155.306C572.707 153.634 573.746 150.435 576.309 150.23L580.325 149.908C581.406 149.821 582.347 149.138 582.763 148.137L584.31 144.417Z" fill="#52A2FF"/>
<defs>
<linearGradient id="paint0_linear_14817_822" x1="497" y1="294" x2="497" y2="688" gradientUnits="userSpaceOnUse">
<stop stop-color="#E18745"/>
<stop offset="1" stop-color="#D7A37E" stop-opacity="0"/>
</linearGradient>
</defs>
</svg>
