<svg width="32" height="32" viewBox="0 0 32 32" fill="none" xmlns="http://www.w3.org/2000/svg">
<path d="M6.05455 18.2232C6.03544 18.2063 6.01738 18.1904 6.00033 18.1753V18.0686L5.76601 17.8343C4.3076 16.3759 3.46699 14.4428 3.46699 12.4V12.1458C3.59348 8.18597 6.96731 4.93333 10.9337 4.93333C11.5714 4.93333 12.3748 5.15125 13.1544 5.57104C13.9048 5.9751 14.5758 6.53553 15.0231 7.17784C15.4579 8.15492 16.8562 8.14051 17.2626 7.13462C17.6417 6.45729 18.2987 5.87138 19.0566 5.44869C19.8357 5.01422 20.6354 4.8 21.2003 4.8C25.2838 4.8 28.5403 8.03647 28.667 12.1454V12.4C28.667 14.5893 27.818 16.5041 26.3931 17.8103L26.1337 18.0481V18.1452C26.1085 18.1662 26.0822 18.1883 26.0549 18.2113C25.8476 18.3862 25.5657 18.629 25.2295 18.9213C24.5564 19.5066 23.6545 20.3 22.6714 21.1665C22.3564 21.4441 22.033 21.7292 21.7061 22.0176C19.9919 23.5292 18.1787 25.1282 16.9501 26.1894C16.4483 26.6035 15.6857 26.6035 15.1839 26.1894C13.7188 24.924 11.3906 22.8951 9.4101 21.1643C8.41871 20.2979 7.515 19.5066 6.85098 18.9238C6.51889 18.6323 6.24717 18.3933 6.05455 18.2232Z" fill="#FF68CC" stroke="#FF68CC" stroke-width="1.6"/>
</svg>
