<svg width="32" height="32" viewBox="0 0 32 32" fill="none" xmlns="http://www.w3.org/2000/svg">
<path d="M6.12073 18.1482C6.11379 18.1421 6.10699 18.1361 6.10033 18.1302V18.0272L5.83672 17.7636C4.39601 16.3229 3.56699 14.4149 3.56699 12.4V12.1474C3.6926 8.24257 7.0215 5.03333 10.9337 5.03333C11.5511 5.03333 12.3382 5.24515 13.107 5.65909C13.8433 6.0556 14.4989 6.60339 14.9355 7.22713C15.4088 8.27379 16.9121 8.25737 17.3529 7.17788C17.7211 6.52332 18.3608 5.95126 19.1054 5.53603C19.8735 5.10766 20.6565 4.9 21.2003 4.9C25.2276 4.9 28.4411 8.09104 28.567 12.1469V12.4C28.567 14.563 27.7286 16.4504 26.3255 17.7366L26.0337 18.0041V18.0985C26.0196 18.1104 26.0052 18.1225 25.9905 18.1349C25.7825 18.3102 25.5002 18.5534 25.1639 18.8459C24.4905 19.4314 23.5884 20.225 22.6052 21.0915C22.2902 21.3692 21.9668 21.6543 21.6398 21.9427C19.926 23.454 18.1137 25.0522 16.8855 26.113C16.4209 26.4957 15.713 26.4957 15.2484 26.1129C13.7834 24.8477 11.456 22.8195 9.47591 21.089C8.48455 20.2226 7.5809 19.4314 6.91695 18.8486C6.58489 18.5571 6.31325 18.3182 6.12073 18.1482Z" stroke="#6B7280" stroke-width="1.8"/>
</svg>
