<svg width="32" height="32" viewBox="0 0 32 32" fill="none" xmlns="http://www.w3.org/2000/svg">
<path d="M6.05418 18.2232C6.03508 18.2063 6.01701 18.1904 5.99996 18.1753V18.0686L5.76564 17.8343C4.30723 16.3759 3.46663 14.4428 3.46663 12.4V12.1458C3.59311 8.18597 6.96694 4.93333 10.9333 4.93333C11.571 4.93333 12.3744 5.15125 13.154 5.57104C13.9044 5.9751 14.5754 6.53553 15.0227 7.17784C15.4575 8.15492 16.8558 8.14051 17.2622 7.13462C17.6413 6.45729 18.2984 5.87138 19.0563 5.44869C19.8353 5.01422 20.6351 4.8 21.2 4.8C25.2834 4.8 28.5399 8.03647 28.6666 12.1454V12.4C28.6666 14.5893 27.8176 16.5041 26.3927 17.8103L26.1333 18.0481V18.1452C26.1081 18.1662 26.0819 18.1883 26.0546 18.2113C25.8472 18.3862 25.5654 18.629 25.2292 18.9213C24.5561 19.5066 23.6542 20.3 22.671 21.1665C22.356 21.4441 22.0327 21.7292 21.7057 22.0176C19.9915 23.5292 18.1783 25.1282 16.9497 26.1894C16.4479 26.6035 15.6854 26.6035 15.1836 26.1894C13.7184 24.924 11.3902 22.8951 9.40974 21.1643C8.41835 20.2979 7.51463 19.5066 6.85061 18.9238C6.51853 18.6323 6.24681 18.3933 6.05418 18.2232Z" fill="#FF68CC" stroke="#FF68CC" stroke-width="1.6"/>
</svg>
