<svg width="16" height="16" viewBox="0 0 16 16" fill="none" xmlns="http://www.w3.org/2000/svg">
<path d="M14.7334 6.06667C14.6667 3.8 12.8667 2 10.6 2C9.86671 2 8.73337 2.53333 8.26671 3.4C8.20004 3.6 7.93337 3.6 7.86671 3.4C7.33337 2.6 6.26671 2.06667 5.46671 2.06667C3.26671 2.06667 1.40004 3.86667 1.33337 6.06667V6.2C1.33337 7.33333 1.80004 8.4 2.60004 9.2C2.60004 9.2 2.60004 9.2 2.60004 9.26667C2.66671 9.33333 5.86671 12.1333 7.33337 13.4C7.73337 13.7333 8.33337 13.7333 8.73337 13.4C10.2 12.1333 13.3334 9.33333 13.4667 9.26667C13.4667 9.26667 13.4667 9.26667 13.4667 9.2C14.2667 8.46667 14.7334 7.4 14.7334 6.2V6.06667Z" fill="#FF68CC"/>
</svg>
