<svg width="24" height="24" viewBox="0 0 24 24" fill="none" xmlns="http://www.w3.org/2000/svg">
<g clip-path="url(#clip0_11140_3633)">
<circle cx="12" cy="12" r="12" fill="#D1D5DB"/>
<path d="M11.6242 5.23765C11.9305 6.29588 11.1208 7.46195 10.1927 7.73234C9.26457 8.00272 7.99661 7.44193 7.69039 6.3837C7.38417 5.32547 8.02701 3.85922 8.95511 3.58883C10.1927 3.22829 11.318 4.17942 11.6242 5.23765Z" fill="white"/>
<path d="M12.1347 5.23765C11.8285 6.29588 12.6381 7.46195 13.5662 7.73234C14.4943 8.00272 15.7623 7.44193 16.0685 6.3837C16.3747 5.32547 15.7319 3.85922 14.8038 3.58883C13.5662 3.22829 12.4409 4.17942 12.1347 5.23765Z" fill="white"/>
<path d="M17.8807 12.9689C17.8807 15.6605 15.2414 16.661 11.6413 16.661C8.04121 16.661 5.46167 15.6605 5.46167 12.9689C5.46167 9.83793 8.04121 7.06143 11.6413 7.06143C15.2414 7.06143 17.8807 9.60164 17.8807 12.9689Z" fill="white"/>
<path d="M10.4499 12.4372C10.4499 13.3187 9.88402 14.2858 9.09331 14.2858C8.30259 14.2858 7.02527 13.5675 7.02527 12.2507C7.02527 11.0136 8.40516 10.5737 9.83104 10.7996C10.705 10.938 10.4499 11.5556 10.4499 12.4372Z" fill="#D1D5DB"/>
<path d="M9.78937 12.3479C9.78937 12.4801 9.7496 12.5873 9.55075 12.5873C9.3519 12.5873 9.31213 12.4801 9.31213 12.3479C9.31213 12.2157 9.39167 12.1085 9.55075 12.1085C9.70983 12.1085 9.78937 12.2157 9.78937 12.3479Z" fill="white"/>
<path d="M12.8551 12.4373C12.8551 13.3188 13.4209 14.2859 14.2116 14.2859C15.0023 14.2859 16.2797 13.5676 16.2797 12.2507C16.2797 11.0137 14.8998 10.5738 13.4739 10.7997C12.6 10.9381 12.8551 11.5557 12.8551 12.4373Z" fill="#D1D5DB"/>
<path d="M13.5167 12.3479C13.5167 12.4801 13.5564 12.5873 13.7553 12.5873C13.9541 12.5873 13.9939 12.4801 13.9939 12.3479C13.9939 12.2157 13.9144 12.1085 13.7553 12.1085C13.5962 12.1085 13.5167 12.2157 13.5167 12.3479Z" fill="white"/>
<path fill-rule="evenodd" clip-rule="evenodd" d="M11.8542 18.0002C16.6502 18.0002 20.1661 16.6485 20.1661 13.0121C20.1661 8.46295 16.6502 5.03116 11.8542 5.03116C7.05823 5.03116 3.62183 8.78219 3.62183 13.0121C3.62183 16.6485 7.05823 18.0002 11.8542 18.0002ZM11.6654 16.6035C15.1932 16.6035 17.7794 15.6136 17.7794 12.9506C17.7794 9.61929 15.1932 7.10616 11.6654 7.10616C8.13755 7.10616 5.60981 9.85307 5.60981 12.9506C5.60981 15.6136 8.13755 16.6035 11.6654 16.6035Z" fill="white"/>
<mask id="mask0_11140_3633" style="mask-type:alpha" maskUnits="userSpaceOnUse" x="0" y="0" width="24" height="24">
<circle cx="12" cy="12" r="12" fill="#9CA3AF"/>
</mask>
<g mask="url(#mask0_11140_3633)">
<ellipse cx="11.7501" cy="22.5" rx="6.75" ry="7.5" fill="white"/>
</g>
</g>
<defs>
<clipPath id="clip0_11140_3633">
<rect width="24" height="24" fill="white"/>
</clipPath>
</defs>
</svg>
