<svg width="22" height="15" viewBox="0 0 22 15" fill="none" xmlns="http://www.w3.org/2000/svg">
<path d="M11.0022 11.5769C12.1353 11.5769 13.0977 11.1803 13.8894 10.3871C14.681 9.59394 15.0769 8.6308 15.0769 7.4977C15.0769 6.36462 14.6803 5.40224 13.8871 4.61058C13.0939 3.81891 12.1308 3.42308 10.9977 3.42308C9.8646 3.42308 8.90223 3.81966 8.11056 4.61282C7.31889 5.40601 6.92306 6.36915 6.92306 7.50225C6.92306 8.63533 7.31964 9.59771 8.11281 10.3894C8.90599 11.181 9.86913 11.5769 11.0022 11.5769ZM11 10.2C10.25 10.2 9.61246 9.93748 9.08746 9.41248C8.56246 8.88748 8.29996 8.24998 8.29996 7.49998C8.29996 6.74998 8.56246 6.11248 9.08746 5.58748C9.61246 5.06248 10.25 4.79998 11 4.79998C11.75 4.79998 12.3875 5.06248 12.9125 5.58748C13.4375 6.11248 13.7 6.74998 13.7 7.49998C13.7 8.24998 13.4375 8.88748 12.9125 9.41248C12.3875 9.93748 11.75 10.2 11 10.2ZM11 14.5C8.89484 14.5 6.96953 13.9384 5.22403 12.8153C3.47852 11.6923 2.08525 10.2147 1.04423 8.38265C0.9609 8.23907 0.9 8.09436 0.861533 7.94853C0.823066 7.80268 0.803833 7.65299 0.803833 7.49948C0.803833 7.34596 0.823066 7.19645 0.861533 7.05095C0.9 6.90543 0.9609 6.76088 1.04423 6.6173C2.08525 4.78525 3.47852 3.30769 5.22403 2.18463C6.96953 1.06154 8.89484 0.5 11 0.5C13.1051 0.5 15.0304 1.06154 16.7759 2.18463C18.5214 3.30769 19.9147 4.78525 20.9557 6.6173C21.039 6.76088 21.0999 6.90559 21.1384 7.05143C21.1768 7.19728 21.1961 7.34696 21.1961 7.50048C21.1961 7.65399 21.1768 7.8035 21.1384 7.949C21.0999 8.09452 21.039 8.23907 20.9557 8.38265C19.9147 10.2147 18.5214 11.6923 16.7759 12.8153C15.0304 13.9384 13.1051 14.5 11 14.5ZM11 13C12.8833 13 14.6125 12.5041 16.1875 11.5125C17.7625 10.5208 18.9666 9.18331 19.8 7.49998C18.9666 5.81664 17.7625 4.47914 16.1875 3.48748C14.6125 2.49581 12.8833 1.99998 11 1.99998C9.11662 1.99998 7.38746 2.49581 5.81246 3.48748C4.23746 4.47914 3.03329 5.81664 2.19996 7.49998C3.03329 9.18331 4.23746 10.5208 5.81246 11.5125C7.38746 12.5041 9.11662 13 11 13Z" fill="#4B5563"/>
</svg>
