<svg width="16" height="16" viewBox="0 0 16 16" fill="none" xmlns="http://www.w3.org/2000/svg">
<path d="M14.7333 6.06667C14.6666 3.8 12.8666 2 10.5999 2C9.86658 2 8.73325 2.53333 8.26659 3.4C8.19992 3.6 7.93325 3.6 7.86659 3.4C7.33325 2.6 6.26659 2.06667 5.46659 2.06667C3.26659 2.06667 1.39992 3.86667 1.33325 6.06667V6.2C1.33325 7.33333 1.79992 8.4 2.59992 9.2C2.59992 9.2 2.59992 9.2 2.59992 9.26667C2.66659 9.33333 5.86659 12.1333 7.33325 13.4C7.73325 13.7333 8.33325 13.7333 8.73325 13.4C10.1999 12.1333 13.3333 9.33333 13.4666 9.26667C13.4666 9.26667 13.4666 9.26667 13.4666 9.2C14.2666 8.46667 14.7333 7.4 14.7333 6.2V6.06667Z" fill="#FF68CC"/>
</svg>
