<svg width="101" height="25" viewBox="0 0 101 25" fill="none" xmlns="http://www.w3.org/2000/svg">
<path d="M21.8926 7.1522H24.9685V10.7408H21.8926V18.0206H17.2786V13.5092C13.9976 14.1757 10.7422 14.5345 6.00006 14.5345H0.61712V11.0228H2.66776V3.74301H1.12978V0.28254H15.2792V3.74301H13.7413V10.6383C14.9973 10.4845 16.1764 10.3051 17.2786 10.1V0.0262099H21.8926V7.1522ZM3.15479 24.1213V16.5083H7.87128V20.5583H22.4052V24.1213H3.15479ZM7.28172 11.0228C7.92254 10.9972 8.53774 10.9972 9.1273 10.9715V3.74301H7.28172V11.0228ZM50.6016 8.94652V12.5351H47.5256V24.1213H42.9117V20.0969C39.6306 21.0453 36.3752 21.5836 31.6331 21.5836H27.0192V0.795203H40.1433V4.25567H31.6331V18.0719C36.324 18.0719 39.6563 17.6105 42.9117 16.6877V0.0262099H47.5256V8.94652H50.6016ZM76.2347 8.94652V12.5351H73.1587V24.1213H68.5447V0.0262099H73.1587V8.94652H76.2347ZM52.6522 21.5836V0.795203H66.0583V21.5836H52.6522ZM57.2662 18.0719H61.4957V4.30693H57.2662V18.0719ZM95.844 0.0262099H100.33V13.9193H95.844V0.0262099ZM76.7473 11.1766C79.7464 10.5614 82.0021 9.61298 83.2581 8.40822L78.2853 8.71582V5.38352H84.3347V3.74301H78.798V0.28254H88.8205V4.89649H90.2816V0.154375H94.6392V13.9193H90.2816V8.48512H88.154C86.7955 11.1253 83.3863 13.3041 78.2084 14.6114L76.7473 11.1766ZM79.5413 20.4558C85.8727 20.2251 87.7183 18.9178 87.7183 16.6877V14.7396H92.3322V17.0978C92.3322 17.713 92.2553 18.3026 92.1015 18.8409C95.075 19.0459 98.0228 19.4561 100.33 19.9944L99.0994 24.1213C96.4592 23.1985 92.768 22.3013 89.7946 21.8143C87.667 23.2498 84.2578 23.9419 80.0284 24.1213L79.5413 20.4558Z" fill="#3692FF"/>
</svg>
