<svg width="40" height="41" viewBox="0 0 40 41" fill="none" xmlns="http://www.w3.org/2000/svg">
<rect y="0.0166016" width="40" height="40.1354" rx="11.1782" fill="#3692FF"/>
<path d="M19.3143 11.1907C19.8136 12.9162 18.4934 14.8175 16.9801 15.2584C15.4668 15.6993 13.3994 14.7849 12.9001 13.0594C12.4008 11.3339 13.4489 8.94314 14.9622 8.50227C16.9801 7.91439 18.815 9.46523 19.3143 11.1907Z" fill="#222327"/>
<path d="M20.1466 11.1907C19.6473 12.9162 20.9675 14.8175 22.4808 15.2584C23.9941 15.6993 26.0616 14.7849 26.5609 13.0594C27.0602 11.3339 26.012 8.94314 24.4987 8.50227C22.4808 7.91439 20.6459 9.46523 20.1466 11.1907Z" fill="#222327"/>
<path d="M29.5167 23.7964C29.5167 28.1852 25.2133 29.8166 19.3432 29.8166C13.4731 29.8166 9.26709 28.1852 9.26709 23.7964C9.26709 18.6912 13.4731 14.1641 19.3432 14.1641C25.2133 14.1641 29.5167 18.306 29.5167 23.7964Z" fill="#F3D6DD"/>
<path d="M17.4003 22.9299C17.4003 24.3673 16.4777 25.9441 15.1884 25.9441C13.8991 25.9441 11.8164 24.7729 11.8164 22.6258C11.8164 20.6087 14.0664 19.8914 16.3913 20.2597C17.8163 20.4855 17.4003 21.4925 17.4003 22.9299Z" fill="#222327"/>
<path d="M16.3221 22.7849C16.3221 23.0005 16.2573 23.1753 15.933 23.1753C15.6088 23.1753 15.5439 23.0005 15.5439 22.7849C15.5439 22.5693 15.6736 22.3945 15.933 22.3945C16.1924 22.3945 16.3221 22.5693 16.3221 22.7849Z" fill="white"/>
<path d="M21.3223 22.9299C21.3223 24.3673 22.2449 25.9441 23.5342 25.9441C24.8235 25.9441 26.9062 24.7729 26.9062 22.6258C26.9062 20.6087 24.6563 19.8914 22.3313 20.2597C20.9064 20.4855 21.3223 21.4925 21.3223 22.9299Z" fill="#222327"/>
<path d="M22.4015 22.7849C22.4015 23.0005 22.4664 23.1753 22.7906 23.1753C23.1148 23.1753 23.1797 23.0005 23.1797 22.7849C23.1797 22.5693 23.05 22.3945 22.7906 22.3945C22.5312 22.3945 22.4015 22.5693 22.4015 22.7849Z" fill="white"/>
<path d="M17.875 25.0086C17.7964 24.894 17.6399 24.8647 17.5253 24.9433C17.4107 25.0218 17.3815 25.1783 17.46 25.2929L17.875 25.0086ZM19.3174 24.6992L19.5554 24.6177C19.5205 24.516 19.4249 24.4477 19.3174 24.4477C19.21 24.4477 19.1144 24.516 19.0795 24.6177L19.3174 24.6992ZM21.1749 25.2929C21.2534 25.1783 21.2242 25.0218 21.1096 24.9433C20.995 24.8647 20.8385 24.894 20.7599 25.0086L21.1749 25.2929ZM17.46 25.2929C17.5295 25.3943 17.6557 25.5302 17.8249 25.6425C17.9957 25.7558 18.2239 25.8538 18.4925 25.8538V25.3507C18.3485 25.3507 18.2158 25.2982 18.103 25.2233C17.9886 25.1475 17.9086 25.0577 17.875 25.0086L17.46 25.2929ZM18.4925 25.8538C18.823 25.8538 19.0688 25.618 19.2218 25.415C19.3834 25.2006 19.4975 24.9496 19.5554 24.7807L19.0795 24.6177C19.0342 24.7498 18.9422 24.9503 18.8201 25.1122C18.6895 25.2855 18.5744 25.3507 18.4925 25.3507V25.8538ZM19.0795 24.7807C19.1374 24.9496 19.2515 25.2006 19.4131 25.415C19.5661 25.618 19.8119 25.8538 20.1424 25.8538V25.3507C20.0605 25.3507 19.9454 25.2855 19.8148 25.1122C19.6927 24.9503 19.6006 24.7498 19.5554 24.6177L19.0795 24.7807ZM20.1424 25.8538C20.411 25.8538 20.6392 25.7558 20.81 25.6425C20.9792 25.5302 21.1054 25.3943 21.1749 25.2929L20.7599 25.0086C20.7263 25.0577 20.6463 25.1475 20.5319 25.2233C20.4191 25.2982 20.2863 25.3507 20.1424 25.3507V25.8538Z" fill="#222327"/>
<path d="M20.6903 24.4673C20.6903 24.6765 19.7483 24.9428 19.4313 25.0265C19.3635 25.0444 19.2936 25.0444 19.2259 25.0265C18.9088 24.9428 17.9668 24.6765 17.9668 24.4673C17.9668 24.2158 18.7197 23.9468 19.3286 23.9468C19.9374 23.9468 20.6903 24.2158 20.6903 24.4673Z" fill="#222327"/>
<path d="M19.166 17.7765C15.3818 17.7765 13.9911 16.4471 13.7661 15.6695L15.5661 13.7129L19.466 13.0356L24.8659 15.6695C24.5409 16.2966 22.9544 17.7765 19.166 17.7765Z" fill="#222327"/>
<path fill-rule="evenodd" clip-rule="evenodd" d="M19.6898 31.9994C27.5098 31.9994 33.2427 29.7954 33.2427 23.8662C33.2427 16.4487 27.5098 10.853 19.6898 10.853C11.8698 10.853 6.2666 16.9692 6.2666 23.8662C6.2666 29.7954 11.8698 31.9994 19.6898 31.9994ZM19.3823 29.7223C25.1345 29.7223 29.3515 28.1083 29.3515 23.7663C29.3515 18.3344 25.1345 14.2367 19.3823 14.2367C13.6301 14.2367 9.50854 18.7156 9.50854 23.7663C9.50854 28.1083 13.6301 29.7223 19.3823 29.7223Z" fill="white"/>
</svg>
