<svg width="140" height="140" viewBox="0 0 140 140" fill="none" xmlns="http://www.w3.org/2000/svg">
<path d="M61.4618 37.3836C63.7332 43.2514 59.6885 50.2866 54.5248 52.2854C49.3611 54.2842 41.8463 51.7235 39.5749 45.8556C37.3036 39.9877 40.2475 31.3277 45.4112 29.329C52.2967 26.6637 59.1905 31.5157 61.4618 37.3836Z" fill="#D1D5DB"/>
<path d="M64.3732 37.1308C63.1488 43.3027 68.3472 49.5341 73.7784 50.6116C79.2096 51.689 86.1696 47.8695 87.394 41.6977C88.6183 35.5258 84.2237 27.504 78.7925 26.4265C71.5503 24.9898 65.5975 30.959 64.3732 37.1308Z" fill="#D1D5DB"/>
<path d="M117.761 82.1278C117.761 102.892 97.6167 110.61 70.1386 110.61C42.6605 110.61 22.9719 102.892 22.9719 82.1278C22.9719 57.9748 42.6605 36.5562 70.1386 36.5562C97.6167 36.5562 117.761 56.152 117.761 82.1278Z" fill="#F3F4F6"/>
<path d="M104.83 81.8886C104.83 97.1103 90.7169 102.768 71.4656 102.768C52.2142 102.768 38.4203 97.1103 38.4203 81.8886C38.4203 64.1826 52.2142 48.481 71.4656 48.481C90.7169 48.481 104.83 62.8462 104.83 81.8886Z" fill="#F9FAFB"/>
<path d="M69.6483 79.7651C69.6483 84.7988 66.5789 90.3209 62.2895 90.3209C58.0001 90.3209 51.071 86.2194 51.071 78.7001C51.071 71.6365 58.5565 69.1243 66.2915 70.4142C71.0322 71.2048 69.6483 74.7314 69.6483 79.7651Z" fill="#D1D5DB"/>
<path d="M66.0608 79.2566C66.0608 80.0116 65.8451 80.6237 64.7664 80.6237C63.6877 80.6237 63.4719 80.0116 63.4719 79.2566C63.4719 78.5015 63.9034 77.8894 64.7664 77.8894C65.6293 77.8894 66.0608 78.5015 66.0608 79.2566Z" fill="#F3F4F6"/>
<path d="M82.3421 79.7651C82.3421 84.7988 85.1871 90.3209 89.1629 90.3209C93.1386 90.3209 99.5609 86.2194 99.5609 78.7001C99.5609 71.6365 92.6229 69.1243 85.4535 70.4142C81.0594 71.2048 82.3421 74.7314 82.3421 79.7651Z" fill="#D1D5DB"/>
<path d="M85.6677 79.2566C85.6677 80.0116 85.8677 80.6237 86.8675 80.6237C87.8673 80.6237 88.0673 80.0116 88.0673 79.2566C88.0673 78.5015 87.6673 77.8894 86.8675 77.8894C86.0676 77.8894 85.6677 78.5015 85.6677 79.2566Z" fill="#F3F4F6"/>
<path d="M71.2237 87.0969C70.9764 86.7371 70.4842 86.646 70.1244 86.8933C69.7646 87.1407 69.6734 87.6329 69.9208 87.9927L71.2237 87.0969ZM76.37 85.9636L77.1176 85.7066C77.0079 85.3874 76.7075 85.173 76.37 85.173C76.0324 85.173 75.732 85.3874 75.6223 85.7066L76.37 85.9636ZM82.8191 87.9927C83.0665 87.6329 82.9753 87.1407 82.6155 86.8933C82.2557 86.646 81.7635 86.7371 81.5162 87.0969L82.8191 87.9927ZM69.9208 87.9927C70.1585 88.3385 70.5935 88.8061 71.178 89.1925C71.7674 89.5822 72.5512 89.9166 73.4711 89.9166V88.3354C72.9416 88.3354 72.4571 88.1427 72.0501 87.8736C71.6381 87.6012 71.3484 87.2782 71.2237 87.0969L69.9208 87.9927ZM73.4711 89.9166C74.5853 89.9166 75.4248 89.1231 75.9588 88.417C76.5193 87.6758 76.9165 86.8056 77.1176 86.2206L75.6223 85.7066C75.461 86.1758 75.1335 86.8868 74.6976 87.4632C74.2351 88.0748 73.8064 88.3354 73.4711 88.3354V89.9166ZM75.6223 86.2206C75.8234 86.8056 76.2206 87.6758 76.7811 88.417C77.3151 89.1231 78.1546 89.9166 79.2688 89.9166V88.3354C78.9335 88.3354 78.5048 88.0748 78.0423 87.4632C77.6064 86.8868 77.2789 86.1758 77.1176 85.7066L75.6223 86.2206ZM79.2688 89.9166C80.1887 89.9166 80.9725 89.5822 81.5619 89.1925C82.1464 88.8061 82.5814 88.3385 82.8191 87.9927L81.5162 87.0969C81.3915 87.2782 81.1018 87.6012 80.6898 87.8736C80.2828 88.1427 79.7983 88.3354 79.2688 88.3354V89.9166Z" fill="#D1D5DB"/>
<path d="M81.1966 85.1512C81.1966 85.8924 77.8096 86.838 76.7348 87.1194C76.5224 87.1751 76.3009 87.1751 76.0884 87.1194C75.0136 86.838 71.6266 85.8924 71.6266 85.1512C71.6266 84.2703 74.2723 83.3284 76.4116 83.3284C78.5509 83.3284 81.1966 84.2703 81.1966 85.1512Z" fill="#D1D5DB"/>
<path d="M77.1141 60.965C56.7757 62.2437 51.8151 55.7514 51.071 53.0121L62.4804 46.6498L75.3779 44.2639L93.236 53.5423C92.1612 55.7514 89.6212 60.1787 77.1141 60.965Z" fill="#D1D5DB"/>
<path fill-rule="evenodd" clip-rule="evenodd" d="M72.6058 110.676C98.6615 110.676 117.763 102.958 117.763 82.1935C117.763 56.2176 98.6615 36.6218 72.6058 36.6218C46.55 36.6218 27.8806 58.0405 27.8806 82.1935C27.8806 102.958 46.55 110.676 72.6058 110.676ZM71.5817 102.701C90.7477 102.701 104.798 97.0489 104.798 81.8433C104.798 62.821 90.7477 48.4708 71.5817 48.4708C52.4156 48.4708 38.6829 64.1559 38.6829 81.8433C38.6829 97.0489 52.4156 102.701 71.5817 102.701Z" fill="#F3F4F6"/>
<path fill-rule="evenodd" clip-rule="evenodd" d="M17.2191 65.1236C20.1086 61.8882 25.3166 62.4249 27.4855 66.1816L30.6621 71.6835C32.831 75.4402 30.6918 80.2188 26.4451 81.1035L25.0639 81.3912C24.9849 81.4077 24.9058 81.4226 24.8266 81.436C24.7968 81.5181 24.759 81.598 24.7146 81.6743C23.4569 83.8363 22.8582 88.817 29.0549 94.5814C35.0928 100.198 40.3123 100.607 42.7149 100.007C42.8854 99.9642 43.0624 99.9521 43.2332 99.9737L43.5477 99.3502C45.5013 95.4772 50.6707 94.6476 53.7381 97.715L58.2304 102.207C61.2977 105.275 60.4682 110.444 56.5952 112.398L56.3046 112.544C56.225 112.67 56.1116 112.78 55.964 112.86C48.3144 117.012 31.1182 115.005 21.712 101.924C9.93899 85.5524 11.125 71.6321 15.767 66.6653C15.8462 66.5806 15.9363 66.5156 16.0327 66.4694C16.1116 66.3696 16.1938 66.2717 16.2794 66.1759L17.2191 65.1236Z" fill="#D1D5DB"/>
<path d="M108.264 35.446C109.527 32.5755 110.649 32.0213 112.376 31.762C113.712 31.5569 114.811 31.2474 115.27 30.2036C115.729 29.1598 115.191 28.1303 114.171 27.6816C113.175 27.2434 111.937 27.5481 111.391 28.7238L107.619 27.0648C109.2 23.5984 112.475 23.17 115.583 24.5369C119.022 26.0499 120.783 28.8061 119.458 31.819C118.581 33.8117 116.971 34.5757 114.964 34.8255C113.349 35.0212 112.42 35.4616 111.752 36.9799L111.606 37.312L108.118 35.7781L108.264 35.446ZM107.511 42.0512C106.325 41.5294 105.77 40.1527 106.325 38.9533C106.813 37.7804 108.203 37.2593 109.389 37.781C110.528 38.2819 111.107 39.669 110.619 40.8419C110.063 42.0413 108.65 42.552 107.511 42.0512Z" fill="#D1D5DB"/>
<path d="M119.826 43.5493C121.494 41.8281 122.445 41.729 123.752 42.0026C124.764 42.2108 125.633 42.2811 126.24 41.6552C126.846 41.0293 126.734 40.1486 126.123 39.5558C125.525 38.9769 124.557 38.8661 123.853 39.5636L121.592 37.372C123.646 35.3084 126.107 35.872 127.97 37.6777C130.033 39.6763 130.562 42.1194 128.811 43.926C127.653 45.1209 126.296 45.2404 124.792 44.8859C123.583 44.5968 122.799 44.6651 121.917 45.5755L121.724 45.7747L119.633 43.7485L119.826 43.5493ZM117.53 48.0821C116.819 47.3929 116.787 46.2587 117.504 45.547C118.165 44.8362 119.3 44.8323 120.011 45.5215C120.694 46.1832 120.74 47.3311 120.079 48.0419C119.362 48.7536 118.213 48.7437 117.53 48.0821Z" fill="#D1D5DB"/>
</svg>
