<svg width="52" height="53" viewBox="0 0 52 53" fill="none" xmlns="http://www.w3.org/2000/svg">
<rect y="0.492188" width="51.7647" height="51.9399" rx="14.4658" fill="#3692FF"/>
<path d="M24.9943 14.9521C25.6405 17.185 23.932 19.6456 21.9736 20.2161C20.0152 20.7867 17.3397 19.6033 16.6935 17.3704C16.0474 15.1374 17.4038 12.0434 19.3622 11.4729C21.9736 10.7121 24.3482 12.7191 24.9943 14.9521Z" fill="#222327"/>
<path d="M26.0711 14.9521C25.4249 17.185 27.1334 19.6456 29.0918 20.2161C31.0502 20.7867 33.7258 19.6033 34.3719 17.3704C35.0181 15.1374 33.6616 12.0434 31.7032 11.4729C29.0918 10.7121 26.7172 12.7191 26.0711 14.9521Z" fill="#222327"/>
<path d="M38.1976 31.2651C38.1976 36.9448 32.6285 39.056 25.0319 39.056C17.4353 39.056 11.9922 36.9448 11.9922 31.2651C11.9922 24.6585 17.4353 18.7998 25.0319 18.7998C32.6285 18.7998 38.1976 24.1599 38.1976 31.2651Z" fill="#F3D6DD"/>
<path d="M22.5173 30.1438C22.5173 32.004 21.3233 34.0446 19.6548 34.0446C17.9863 34.0446 15.291 32.529 15.291 29.7503C15.291 27.14 18.2027 26.2117 21.2115 26.6883C23.0556 26.9805 22.5173 28.2837 22.5173 30.1438Z" fill="#222327"/>
<path d="M21.1223 29.9564C21.1223 30.2354 21.0383 30.4616 20.6187 30.4616C20.1992 30.4616 20.1152 30.2354 20.1152 29.9564C20.1152 29.6774 20.2831 29.4512 20.6187 29.4512C20.9544 29.4512 21.1223 29.6774 21.1223 29.9564Z" fill="white"/>
<path d="M27.5921 30.1438C27.5921 32.004 28.7861 34.0446 30.4546 34.0446C32.1231 34.0446 34.8184 32.529 34.8184 29.7503C34.8184 27.14 31.9067 26.2117 28.8979 26.6883C27.0538 26.9805 27.5921 28.2837 27.5921 30.1438Z" fill="#222327"/>
<path d="M28.9891 29.9564C28.9891 30.2354 29.073 30.4616 29.4926 30.4616C29.9122 30.4616 29.9961 30.2354 29.9961 29.9564C29.9961 29.6774 29.8283 29.4512 29.4926 29.4512C29.1569 29.4512 28.9891 29.6774 28.9891 29.9564Z" fill="white"/>
<path d="M23.1318 32.8339C23.0302 32.6857 22.8276 32.6478 22.6793 32.7494C22.531 32.851 22.4932 33.0536 22.5948 33.2019L23.1318 32.8339ZM24.9985 32.4336L25.3064 32.3281C25.2614 32.1965 25.1376 32.1081 24.9985 32.1081C24.8594 32.1081 24.7357 32.1965 24.6906 32.3281L24.9985 32.4336ZM27.4023 33.2019C27.5039 33.0536 27.466 32.851 27.3178 32.7494C27.1695 32.6478 26.9669 32.6857 26.8653 32.8339L27.4023 33.2019ZM22.5948 33.2019C22.6847 33.3331 22.848 33.509 23.067 33.6543C23.2881 33.8009 23.5833 33.9277 23.9309 33.9277V33.2767C23.7447 33.2767 23.5729 33.2087 23.4269 33.1119C23.2789 33.0137 23.1753 32.8975 23.1318 32.8339L22.5948 33.2019ZM23.9309 33.9277C24.3586 33.9277 24.6768 33.6226 24.8748 33.3599C25.0838 33.0825 25.2316 32.7576 25.3064 32.5391L24.6906 32.3281C24.632 32.4991 24.5129 32.7585 24.3549 32.9681C24.1859 33.1923 24.037 33.2767 23.9309 33.2767V33.9277ZM24.6906 32.5391C24.7655 32.7576 24.9132 33.0825 25.1223 33.3599C25.3203 33.6226 25.6384 33.9277 26.0662 33.9277V33.2767C25.9601 33.2767 25.8111 33.1923 25.6421 32.9681C25.4842 32.7585 25.365 32.4991 25.3064 32.3281L24.6906 32.5391ZM26.0662 33.9277C26.4137 33.9277 26.709 33.8009 26.93 33.6543C27.149 33.509 27.3124 33.3331 27.4023 33.2019L26.8653 32.8339C26.8218 32.8975 26.7182 33.0137 26.5702 33.1119C26.4242 33.2087 26.2524 33.2767 26.0662 33.2767V33.9277Z" fill="#222327"/>
<path d="M26.7756 32.1336C26.7756 32.4043 25.5565 32.7489 25.1462 32.8573C25.0585 32.8804 24.9681 32.8804 24.8804 32.8573C24.4701 32.7489 23.251 32.4043 23.251 32.1336C23.251 31.8081 24.2254 31.46 25.0133 31.46C25.8012 31.46 26.7756 31.8081 26.7756 32.1336Z" fill="#222327"/>
<path d="M24.8026 23.4751C19.9053 23.4751 18.1056 21.7546 17.8145 20.7483L20.1438 18.2163L25.1908 17.3398L32.1789 20.7483C31.7583 21.5599 29.7052 23.4751 24.8026 23.4751Z" fill="#222327"/>
<path fill-rule="evenodd" clip-rule="evenodd" d="M25.4806 41.8806C35.6006 41.8806 43.0196 39.0284 43.0196 31.3552C43.0196 21.7561 35.6006 14.5146 25.4806 14.5146C15.3605 14.5146 8.10938 22.4297 8.10938 31.3552C8.10938 39.0284 15.3605 41.8806 25.4806 41.8806ZM25.0827 38.9337C32.5268 38.9337 37.984 36.845 37.984 31.2259C37.984 24.1964 32.5268 18.8934 25.0827 18.8934C17.6387 18.8934 12.3049 24.6897 12.3049 31.2259C12.3049 36.845 17.6387 38.9337 25.0827 38.9337Z" fill="white"/>
</svg>
