<svg width="40" height="40" viewBox="0 0 40 40" fill="none" xmlns="http://www.w3.org/2000/svg">
<rect x="0.5" y="0.5" width="39" height="39" rx="19.5" fill="white"/>
<rect x="0.5" y="0.5" width="39" height="39" rx="19.5" stroke="#E5E7EB"/>
<path d="M19.5469 25.6562C17.125 25.6562 15.4062 24.3438 15.3594 22.4375H17.4062C17.4688 23.3438 18.375 23.9375 19.5469 23.9375C20.7969 23.9375 21.6875 23.25 21.6875 22.25C21.6875 21.2344 20.8125 20.5 19.3438 20.5H18.3281V18.9375H19.3438C20.5469 18.9375 21.3906 18.2656 21.375 17.2812C21.3906 16.3281 20.6719 15.6875 19.5625 15.6875C18.5 15.6875 17.5781 16.2812 17.5469 17.2344H15.5938C15.6406 15.3281 17.3594 14.0312 19.5781 14.0312C21.875 14.0312 23.3594 15.4375 23.3438 17.1719C23.3594 18.4375 22.5156 19.3594 21.2812 19.6094V19.7031C22.875 19.9219 23.7812 20.9375 23.7656 22.3594C23.7812 24.2656 22 25.6562 19.5469 25.6562Z" fill="#6B7280"/>
</svg>
