<svg width="40" height="40" viewBox="0 0 40 40" fill="none" xmlns="http://www.w3.org/2000/svg">
<rect x="0.5" y="0.5" width="39" height="39" rx="19.5" fill="white"/>
<rect x="0.5" y="0.5" width="39" height="39" rx="19.5" stroke="#E5E7EB"/>
<path d="M19.9531 25.6562C17.6875 25.6562 16.0312 24.3125 15.9688 22.4375H17.9531C18.0156 23.3594 18.875 24.0156 19.9531 24.0156C21.2188 24.0156 22.125 23.0938 22.125 21.8438C22.125 20.5469 21.1875 19.625 19.8906 19.625C19.0156 19.6094 18.375 19.9219 18.0156 20.5938H16.125L16.8125 14.1875H23.5V15.8906H18.4844L18.1406 18.8906H18.25C18.6875 18.3906 19.5156 18.0312 20.4375 18.0312C22.5469 18.0312 24.0938 19.6094 24.0938 21.7812C24.0938 24.0469 22.3906 25.6562 19.9531 25.6562Z" fill="#6B7280"/>
</svg>
