<svg width="40" height="40" viewBox="0 0 40 40" fill="none" xmlns="http://www.w3.org/2000/svg">
<rect x="0.5" y="0.5" width="39" height="39" rx="19.5" fill="white"/>
<rect x="0.5" y="0.5" width="39" height="39" rx="19.5" stroke="#E5E7EB"/>
<path d="M15.9375 25.5V24.0312L19.9375 20.1719C21.0781 19.0312 21.6719 18.3594 21.6719 17.4062C21.6719 16.3594 20.8438 15.6875 19.7344 15.6875C18.5625 15.6875 17.8125 16.4219 17.8281 17.5625H15.8906C15.875 15.4219 17.4844 14.0312 19.75 14.0312C22.0625 14.0312 23.625 15.4062 23.625 17.3125C23.625 18.5938 23 19.625 20.7812 21.7188L18.7656 23.7188V23.7969H23.7969V25.5H15.9375Z" fill="#6B7280"/>
</svg>
