<svg width="24" height="24" viewBox="0 0 24 24" fill="none" xmlns="http://www.w3.org/2000/svg">
<g clip-path="url(#clip0_28783_14729)">
<circle cx="12" cy="12" r="12" fill="#D1D5DB"/>
<path d="M11.6244 5.23771C11.9306 6.29594 11.1209 7.46201 10.1928 7.7324C9.26469 8.00278 7.99673 7.44199 7.69051 6.38376C7.38429 5.32553 8.02713 3.85928 8.95523 3.58889C10.1928 3.22835 11.3181 4.17948 11.6244 5.23771Z" fill="white"/>
<path d="M12.1349 5.23771C11.8287 6.29594 12.6384 7.46201 13.5665 7.7324C14.4946 8.00278 15.7625 7.44199 16.0688 6.38376C16.375 5.32553 15.7321 3.85928 14.804 3.58889C13.5665 3.22835 12.4411 4.17948 12.1349 5.23771Z" fill="white"/>
<path d="M17.8809 12.969C17.8809 15.6606 15.2417 16.6611 11.6416 16.6611C8.04145 16.6611 5.46191 15.6606 5.46191 12.969C5.46191 9.83803 8.04145 7.06152 11.6416 7.06152C15.2417 7.06152 17.8809 9.60173 17.8809 12.969Z" fill="white"/>
<path d="M10.45 12.4371C10.45 13.3187 9.88415 14.2858 9.09343 14.2858C8.30271 14.2858 7.02539 13.5675 7.02539 12.2506C7.02539 11.0136 8.40528 10.5736 9.83116 10.7995C10.7051 10.938 10.45 11.5556 10.45 12.4371Z" fill="#D1D5DB"/>
<path d="M9.7895 12.3478C9.7895 12.4801 9.74973 12.5873 9.55088 12.5873C9.35203 12.5873 9.31226 12.4801 9.31226 12.3478C9.31226 12.2156 9.3918 12.1084 9.55088 12.1084C9.70996 12.1084 9.7895 12.2156 9.7895 12.3478Z" fill="white"/>
<path d="M12.8552 12.4371C12.8552 13.3187 13.421 14.2858 14.2117 14.2858C15.0025 14.2858 16.2798 13.5675 16.2798 12.2506C16.2798 11.0136 14.8999 10.5736 13.474 10.7995C12.6001 10.938 12.8552 11.5556 12.8552 12.4371Z" fill="#D1D5DB"/>
<path d="M13.5167 12.3478C13.5167 12.4801 13.5564 12.5873 13.7553 12.5873C13.9541 12.5873 13.9939 12.4801 13.9939 12.3478C13.9939 12.2156 13.9144 12.1084 13.7553 12.1084C13.5962 12.1084 13.5167 12.2156 13.5167 12.3478Z" fill="white"/>
<path fill-rule="evenodd" clip-rule="evenodd" d="M11.8545 18.0002C16.6504 18.0002 20.1664 16.6486 20.1664 13.0122C20.1664 8.46305 16.6504 5.03125 11.8545 5.03125C7.05848 5.03125 3.62207 8.78228 3.62207 13.0122C3.62207 16.6486 7.05848 18.0002 11.8545 18.0002ZM11.6656 16.6035C15.1934 16.6035 17.7797 15.6137 17.7797 12.9507C17.7797 9.61938 15.1934 7.10625 11.6656 7.10625C8.1378 7.10625 5.61006 9.85316 5.61006 12.9507C5.61006 15.6137 8.1378 16.6035 11.6656 16.6035Z" fill="white"/>
<mask id="mask0_28783_14729" style="mask-type:alpha" maskUnits="userSpaceOnUse" x="0" y="0" width="24" height="24">
<circle cx="12" cy="12" r="12" fill="#9CA3AF"/>
</mask>
<g mask="url(#mask0_28783_14729)">
<ellipse cx="11.75" cy="22.5" rx="6.75" ry="7.5" fill="white"/>
</g>
</g>
<defs>
<clipPath id="clip0_28783_14729">
<rect width="24" height="24" fill="white"/>
</clipPath>
</defs>
</svg>
